<svg width="256" height="256" viewBox="0 0 256 256" fill="none" xmlns="http://www.w3.org/2000/svg">
<path fill-rule="evenodd" clip-rule="evenodd" d="M50.2535 87.8584L120.127 115.883C125.262 117.703 128.111 117.93 133.104 115.883L203.976 86.8575L191.997 130.896C190.657 134.415 190.478 136.385 191.997 139.904L207.969 181.941L127.115 218.974L48.2571 182.942L61.2336 140.905C62.4571 136.401 62.6734 133.804 61.2336 128.894L50.2535 87.8584ZM119.129 127.894L68.221 107.876L73.212 126.893C75.0466 133.151 75.2571 136.647 73.212 142.907L62.2318 176.937L127.115 205.962L192.996 175.936L180.019 140.905C179.006 136.77 179.063 134.345 180.019 129.895L186.008 107.876L136.098 127.894C129.393 130.226 125.675 130.349 119.129 127.894Z" fill="#5456C0"/>
<path fill-rule="evenodd" clip-rule="evenodd" d="M137.097 1.78279L231.925 43.8197C241.276 48.8583 245.109 52.5977 244.902 63.8373V73.8461C244.902 79.8514 227.933 133.899 227.933 133.899L246.898 183.943C247.581 195.955 244.922 201.085 235.918 207.964L137.097 254.004C129.572 256.725 125.19 256.605 117.133 254.004L21.3058 209.966C9.23547 202.6 7.15711 196.809 10.3256 183.943L25.2986 134.9C25.2986 134.9 9.32741 79.8514 9.32742 75.8478V63.8373C9.16163 54.3836 11.6378 50.6158 19.3094 45.8215L117.133 1.78279C124.485 -0.547736 128.838 -0.640342 137.097 1.78279ZM137.097 14.7942C129.299 11.0483 124.932 11.1877 117.133 14.7942L27.295 54.8294C23.0523 57.1543 21.6684 59.0957 21.3058 63.8373V73.8461C21.3058 78.8505 38.2751 134.9 38.2751 134.9L22.304 185.945C20.6306 192.554 21.3058 196.954 27.295 199.957L120.127 241.994C125.485 244.095 128.528 244.377 134.102 241.994L228.931 197.955C234.936 194.387 235.961 191.332 233.922 183.943L215.954 134.9C215.954 134.9 232.923 77.8496 232.923 73.8461V63.8373C232.541 59.0105 231.022 57.1803 226.934 54.8294L137.097 14.7942Z" fill="#5456C0"/>
<path fill-rule="evenodd" clip-rule="evenodd" d="M127.115 36.8136L192.996 65.839L127.115 92.8628L61.2336 65.839L127.115 36.8136ZM127.115 49.825L91.1796 65.839L127.115 79.8513L162.052 65.839L127.115 49.825Z" fill="#5456C0"/>
<path fill-rule="evenodd" clip-rule="evenodd" d="M117.133 14.7942C124.932 11.1877 129.299 11.0483 137.097 14.7942L226.934 54.8294C231.022 57.1803 232.541 59.0105 232.923 63.8373V73.8461C232.923 77.8496 215.954 134.9 215.954 134.9L233.922 183.943C235.961 191.332 234.936 194.387 228.931 197.955L134.102 241.994C128.528 244.377 125.485 244.095 120.127 241.994L27.295 199.957C21.3058 196.954 20.6306 192.554 22.304 185.945L38.2751 134.9C38.2751 134.9 21.3058 78.8505 21.3058 73.8461V63.8373C21.6684 59.0957 23.0523 57.1543 27.295 54.8294L117.133 14.7942ZM120.127 115.883L50.2535 87.8584L61.2336 128.894C62.6734 133.804 62.4571 136.401 61.2336 140.905L48.2571 182.942L127.115 218.974L207.969 181.941L191.997 139.904C190.478 136.385 190.657 134.415 191.997 130.896L203.976 86.8575L133.104 115.883C128.111 117.93 125.262 117.703 120.127 115.883ZM192.996 65.839L127.115 36.8136L61.2336 65.839L127.115 92.8628L192.996 65.839Z" fill="#FAFAFA"/>
<path d="M68.221 107.876L119.129 127.894C125.675 130.349 129.393 130.226 136.098 127.894L186.008 107.876L180.019 129.895C179.063 134.345 179.006 136.77 180.019 140.905L192.996 175.936L127.115 205.962L62.2318 176.937L73.212 142.907C75.2571 136.647 75.0466 133.151 73.212 126.893L68.221 107.876Z" fill="#5456C0"/>
<path d="M91.1796 65.839L127.115 49.825L162.052 65.839L127.115 79.8513L91.1796 65.839Z" fill="#5456C0"/>
</svg>
