<svg width="64" height="64" viewBox="0 0 64 64" fill="none" xmlns="http://www.w3.org/2000/svg">
<path fill-rule="evenodd" clip-rule="evenodd" d="M13.7067 23.935L30.1476 30.6127C31.3559 31.0463 32.0261 31.1005 33.2009 30.6127L49.8767 23.6965L47.0582 34.1901C46.7428 35.0287 46.7007 35.4979 47.0582 36.3365L50.8161 46.3531L31.7917 55.1773L13.237 46.5916L16.2903 36.575C16.5781 35.5017 16.629 34.8829 16.2903 33.7131L13.7067 23.935ZM29.9127 33.4746L17.9344 28.7048L19.1087 33.2361C19.5404 34.7274 19.5899 35.5604 19.1087 37.052L16.5251 45.1607L31.7917 52.0769L47.2931 44.9222L44.2398 36.575C44.0014 35.5898 44.0149 35.0119 44.2398 33.9516L45.649 28.7048L33.9055 33.4746C32.3277 34.0304 31.453 34.0598 29.9127 33.4746Z" fill="#5456C0"/>
<path fill-rule="evenodd" clip-rule="evenodd" d="M34.1404 3.42481L56.453 13.4414C58.6531 14.642 59.555 15.533 59.5063 18.2112V20.5961C59.5063 22.0271 55.5135 34.9056 55.5135 34.9056L59.9761 46.8301C60.1368 49.6925 59.5111 50.9149 57.3925 52.5539L34.1404 63.5245C32.37 64.1728 31.3388 64.1441 29.443 63.5245L6.89548 53.0309C4.0554 51.2759 3.56638 49.8959 4.31191 46.8301L7.83496 35.1441C7.83496 35.1441 4.07704 22.0271 4.07704 21.0731V18.2112C4.03803 15.9586 4.62067 15.0608 6.42574 13.9184L29.443 3.42481C31.1729 2.86948 32.1972 2.84742 34.1404 3.42481ZM34.1404 6.52519C32.3055 5.63259 31.2782 5.66583 29.443 6.52519L8.30469 16.0648C7.30642 16.6188 6.9808 17.0814 6.89548 18.2112V20.5961C6.89548 21.7886 10.8883 35.1441 10.8883 35.1441L7.13035 47.3071C6.73662 48.8819 6.89548 49.9305 8.30469 50.646L30.1476 60.6626C31.4081 61.1632 32.1243 61.2305 33.4358 60.6626L55.7484 50.169C57.1614 49.3189 57.4025 48.5908 56.9227 46.8301L52.6951 35.1441C52.6951 35.1441 56.6879 21.5501 56.6879 20.5961V18.2112C56.5979 17.0611 56.2404 16.625 55.2787 16.0648L34.1404 6.52519Z" fill="#5456C0"/>
<path fill-rule="evenodd" clip-rule="evenodd" d="M31.7917 11.772L47.2931 18.6882L31.7917 25.1275L16.2903 18.6882L31.7917 11.772ZM31.7917 14.8724L23.3364 18.6882L31.7917 22.0271L40.0121 18.6882L31.7917 14.8724Z" fill="#5456C0"/>
<path fill-rule="evenodd" clip-rule="evenodd" d="M29.443 6.52519C31.2782 5.66583 32.3055 5.63259 34.1404 6.52519L55.2787 16.0648C56.2404 16.625 56.5979 17.0611 56.6879 18.2112V20.5961C56.6879 21.5501 52.6951 35.1441 52.6951 35.1441L56.9227 46.8301C57.4025 48.5908 57.1614 49.3189 55.7484 50.169L33.4358 60.6626C32.1243 61.2305 31.4081 61.1632 30.1476 60.6626L8.30469 50.646C6.89548 49.9305 6.73662 48.8819 7.13035 47.3071L10.8883 35.1441C10.8883 35.1441 6.89548 21.7886 6.89548 20.5961V18.2112C6.9808 17.0814 7.30642 16.6188 8.30469 16.0648L29.443 6.52519ZM30.1476 30.6127L13.7067 23.935L16.2903 33.7131C16.629 34.8829 16.5781 35.5017 16.2903 36.575L13.237 46.5916L31.7917 55.1773L50.8161 46.3531L47.0582 36.3365C46.7007 35.4979 46.7428 35.0287 47.0582 34.1901L49.8767 23.6965L33.2009 30.6127C32.0261 31.1005 31.3559 31.0463 30.1476 30.6127ZM47.2931 18.6882L31.7917 11.772L16.2903 18.6882L31.7917 25.1275L47.2931 18.6882Z" fill="#FAFAFA"/>
<path d="M17.9344 28.7048L29.9127 33.4746C31.453 34.0598 32.3277 34.0304 33.9055 33.4746L45.649 28.7048L44.2398 33.9516C44.0149 35.0119 44.0014 35.5898 44.2398 36.575L47.2931 44.9222L31.7917 52.0769L16.5251 45.1607L19.1087 37.052C19.5899 35.5604 19.5404 34.7274 19.1087 33.2361L17.9344 28.7048Z" fill="#5456C0"/>
<path d="M23.3364 18.6882L31.7917 14.8724L40.0121 18.6882L31.7917 22.0271L23.3364 18.6882Z" fill="#5456C0"/>
</svg>
