<svg width="128" height="128" viewBox="0 0 128 128" fill="none" xmlns="http://www.w3.org/2000/svg">
<path fill-rule="evenodd" clip-rule="evenodd" d="M25.4534 43.9292L60.0967 57.9415C62.6427 58.8513 64.055 58.965 66.5305 57.9415L101.669 43.4288L95.7298 65.4481C95.0651 67.2077 94.9766 68.1924 95.7298 69.9521L103.648 90.9705L63.561 109.487L24.4636 91.4709L30.8974 70.4525C31.5039 68.2003 31.6112 66.9019 30.8974 64.4472L25.4534 43.9292ZM59.6018 63.9468L34.3617 53.938L36.8362 63.4463C37.7458 66.5755 37.8502 68.3235 36.8362 71.4534L31.3923 88.4683L63.561 102.981L96.2247 87.9679L89.791 70.4525C89.2886 68.3851 89.317 67.1726 89.791 64.9477L92.7604 53.938L68.0152 63.9468C64.6906 65.1129 62.8473 65.1747 59.6018 63.9468Z" fill="#FAFAFA"/>
<path fill-rule="evenodd" clip-rule="evenodd" d="M68.5101 0.891396L115.526 21.9099C120.162 24.4291 122.062 26.2988 121.96 31.9186V36.923C121.96 39.9257 113.546 66.9494 113.546 66.9494L122.95 91.9714C123.288 97.9776 121.97 100.543 117.506 103.982L68.5101 127.002C64.7796 128.363 62.6068 128.302 58.612 127.002L11.1012 104.983C5.11674 101.3 4.0863 98.4046 5.65724 91.9714L13.0808 67.4498C13.0808 67.4498 5.16233 39.9257 5.16233 37.9239V31.9186C5.08014 27.1918 6.30783 25.3079 10.1114 22.9107L58.612 0.891396C62.2573 -0.273868 64.4155 -0.320171 68.5101 0.891396ZM68.5101 7.39712C64.6438 5.52413 62.4791 5.59386 58.612 7.39712L14.0706 27.4147C11.9671 28.5771 11.281 29.5478 11.1012 31.9187V36.923C11.1012 39.4252 19.5146 67.4499 19.5146 67.4499L11.5961 92.9723C10.7664 96.2768 11.1012 98.4771 14.0706 99.9784L60.0967 120.997C62.7529 122.047 64.2619 122.189 67.0254 120.997L114.041 98.9775C117.019 97.1936 117.527 95.6659 116.516 91.9714L107.608 67.4499C107.608 67.4499 116.021 38.9248 116.021 36.923V31.9187C115.831 29.5053 115.078 28.5901 113.051 27.4147L68.5101 7.39712Z" fill="#FAFAFA"/>
<path fill-rule="evenodd" clip-rule="evenodd" d="M63.561 18.4068L96.2247 32.9195L63.561 46.4314L30.8974 32.9195L63.561 18.4068ZM63.561 24.9125L45.7445 32.9195L63.561 39.9257L80.8827 32.9195L63.561 24.9125Z" fill="#FAFAFA"/>
<path fill-rule="evenodd" clip-rule="evenodd" d="M58.612 7.39712C62.4791 5.59386 64.6438 5.52413 68.5101 7.39712L113.051 27.4147C115.078 28.5901 115.831 29.5053 116.021 31.9187V36.923C116.021 38.9248 107.608 67.4499 107.608 67.4499L116.516 91.9714C117.527 95.6659 117.019 97.1936 114.041 98.9775L67.0254 120.997C64.2619 122.189 62.7529 122.047 60.0967 120.997L14.0706 99.9784C11.1012 98.4771 10.7664 96.2768 11.5961 92.9723L19.5146 67.4499C19.5146 67.4499 11.1012 39.4252 11.1012 36.923V31.9187C11.281 29.5478 11.9671 28.5771 14.0706 27.4147L58.612 7.39712ZM60.0967 57.9415L25.4534 43.9292L30.8974 64.4472C31.6112 66.9019 31.5039 68.2003 30.8974 70.4525L24.4636 91.4709L63.561 109.487L103.648 90.9705L95.7298 69.9521C94.9766 68.1924 95.0651 67.2077 95.7298 65.4481L101.669 43.4288L66.5305 57.9415C64.055 58.965 62.6427 58.8513 60.0967 57.9415ZM96.2247 32.9195L63.561 18.4068L30.8974 32.9195L63.561 46.4314L96.2247 32.9195Z" fill="#5456C0"/>
</svg>
