<svg width="896" height="504" viewBox="0 0 896 504" fill="none" xmlns="http://www.w3.org/2000/svg">
<rect width="896" height="504" fill="#09090B"/>
<mask id="path-1-inside-1_1_32" fill="white">
<path d="M0 0H249V504H0V0Z"/>
</mask>
<path d="M0 0H249V504H0V0Z" fill="#18181B"/>
<path d="M245 0V504H253V0H245Z" fill="#27272A" mask="url(#path-1-inside-1_1_32)"/>
<rect x="32" y="32" width="185" height="53" rx="10" fill="#3F3F46"/>
<rect x="32" y="109" width="185" height="53" rx="10" fill="#3F3F46"/>
<rect x="32" y="186" width="185" height="53" rx="10" fill="#3F3F46"/>
<rect x="273" y="40" width="168" height="32" rx="16" fill="#FAFAFA"/>
<rect x="273" y="102" width="599" height="378" rx="20" fill="#18181B"/>
<rect width="599" height="100" transform="translate(273 134)" fill="#27272A"/>
<rect x="305" y="168" width="232" height="32" rx="16" fill="#52525B"/>
<rect x="740" y="164" width="100" height="40" rx="10" fill="#FAFAFA"/>
</svg>
