<svg width="32" height="32" viewBox="0 0 32 32" fill="none" xmlns="http://www.w3.org/2000/svg">
<path fill-rule="evenodd" clip-rule="evenodd" d="M6.20002 10.9823L15.0076 14.4854C15.6549 14.7128 16.014 14.7412 16.6433 14.4854L25.5768 10.8572L24.0669 16.362C23.8979 16.8019 23.8754 17.0481 24.0669 17.488L26.0801 22.7426L15.8884 27.3717L5.94837 22.8677L7.58407 17.6131C7.73829 17.0501 7.76556 16.7255 7.58407 16.1118L6.20002 10.9823ZM14.8818 15.9867L8.46483 13.4845L9.09395 15.8616C9.3252 16.6439 9.35174 17.0809 9.09395 17.8633L7.7099 22.1171L15.8884 25.7453L24.1927 21.992L22.557 17.6131C22.4293 17.0963 22.4365 16.7931 22.557 16.2369L23.312 13.4845L17.0208 15.9867C16.1756 16.2782 15.7069 16.2937 14.8818 15.9867Z" fill="black"/>
<path fill-rule="evenodd" clip-rule="evenodd" d="M15.8884 4.6017L24.1927 8.22988L15.8884 11.6079L7.58407 8.22988L15.8884 4.6017ZM15.8884 6.22812L11.3588 8.22988L15.8884 9.98142L20.2922 8.22988L15.8884 6.22812Z" fill="black"/>
<path fill-rule="evenodd" clip-rule="evenodd" d="M17.1466 0.222849L29.0998 5.47746C30.2785 6.10728 30.7616 6.57471 30.7355 7.97966V9.23076C30.7355 9.98142 28.5965 16.7374 28.5965 16.7374L30.9872 22.9928C31.0733 24.4944 30.7381 25.1357 29.6031 25.9955L17.1466 31.7505C16.1982 32.0906 15.6458 32.0756 14.6302 31.7505L2.55115 26.2457C1.02968 25.3251 0.767704 24.6011 1.16709 22.9928L3.05444 16.8625C3.05444 16.8625 1.04127 9.98142 1.04127 9.48098V7.97966C1.02037 6.79795 1.3325 6.32698 2.2995 5.72768L14.6302 0.222849C15.5569 -0.068467 16.1056 -0.0800427 17.1466 0.222849ZM17.1466 1.84928C16.1637 1.38103 15.6133 1.39847 14.6302 1.84928L3.30609 6.85367C2.77129 7.14429 2.59686 7.38696 2.55115 7.97966V9.23076C2.55115 9.85631 4.69014 16.8625 4.69014 16.8625L2.67697 23.2431C2.46605 24.0692 2.55115 24.6193 3.30609 24.9946L15.0076 30.2492C15.6829 30.5119 16.0666 30.5472 16.7692 30.2492L28.7224 24.7444C29.4793 24.2984 29.6085 23.9165 29.3515 22.9928L27.0867 16.8625C27.0867 16.8625 29.2257 9.7312 29.2257 9.23076V7.97966C29.1774 7.37632 28.9859 7.14754 28.4707 6.85367L17.1466 1.84928Z" fill="black"/>
</svg>
