<svg width="512" height="512" viewBox="0 0 512 512" fill="none" xmlns="http://www.w3.org/2000/svg">
<path fill-rule="evenodd" clip-rule="evenodd" d="M99.6803 175.717L239.721 231.766C250.013 235.405 255.722 235.86 265.729 231.766L407.771 173.715L383.764 261.792C381.077 268.831 380.719 272.77 383.764 279.808L415.773 363.882L253.726 437.947L95.6791 365.884L121.687 281.81C124.139 272.801 124.572 267.608 121.687 257.789L99.6803 175.717ZM237.721 255.787L135.691 215.752L145.694 253.785C149.371 266.302 149.793 273.294 145.694 285.813L123.687 353.873L253.726 411.924L385.764 351.871L359.757 281.81C357.726 273.54 357.841 268.69 359.757 259.791L371.76 215.752L271.731 255.787C258.291 260.452 250.84 260.699 237.721 255.787Z" fill="black"/>
<path fill-rule="evenodd" clip-rule="evenodd" d="M273.731 3.56558L463.787 87.6394C482.527 97.7165 490.21 105.195 489.795 127.675V147.692C489.795 159.703 455.785 267.798 455.785 267.798L493.796 367.885C495.165 391.911 489.836 402.171 471.79 415.928L273.731 508.009C258.651 513.45 249.868 513.209 233.72 508.009L41.6633 419.931C17.4719 405.201 13.3065 393.618 19.6568 367.885L49.6656 269.799C49.6656 269.799 17.6562 159.703 17.6562 151.696V127.675C17.3239 108.767 22.2868 101.232 37.6621 91.6429L233.72 3.56558C248.455 -1.09547 257.18 -1.28068 273.731 3.56558ZM273.731 29.5885C258.103 22.0965 249.352 22.3755 233.72 29.5885L53.6668 109.659C45.1636 114.309 42.3901 118.191 41.6633 127.675V147.692C41.6633 157.701 75.6732 269.799 75.6732 269.799L43.6638 371.889C40.3101 385.107 41.6633 393.908 53.6668 399.914L239.721 483.988C250.459 488.19 256.559 488.755 267.73 483.988L457.785 395.91C469.821 388.775 471.875 382.664 467.788 367.885L431.778 269.799C431.778 269.799 465.788 155.699 465.788 147.692V127.675C465.021 118.021 461.976 114.361 453.784 109.659L273.731 29.5885Z" fill="black"/>
<path fill-rule="evenodd" clip-rule="evenodd" d="M253.726 73.6272L385.764 131.678L253.726 185.726L121.687 131.678L253.726 73.6272ZM253.726 99.65L181.704 131.678L253.726 159.703L323.746 131.678L253.726 99.65Z" fill="black"/>
</svg>
