<svg width="896" height="504" viewBox="0 0 896 504" fill="none" xmlns="http://www.w3.org/2000/svg">
<rect width="896" height="504" fill="#FAFAFA"/>
<mask id="path-1-inside-1_2_21" fill="white">
<path d="M0 0H249V504H0V0Z"/>
</mask>
<path d="M0 0H249V504H0V0Z" fill="#F4F4F5"/>
<path d="M245 0V504H253V0H245Z" fill="#D4D4D8" mask="url(#path-1-inside-1_2_21)"/>
<rect x="32" y="32" width="185" height="53" rx="10" fill="#D4D4D8"/>
<rect x="32" y="109" width="185" height="53" rx="10" fill="#D4D4D8"/>
<rect x="32" y="186" width="185" height="53" rx="10" fill="#D4D4D8"/>
<rect x="273" y="40" width="168" height="32" rx="16" fill="#09090B"/>
<rect x="273" y="102" width="599" height="378" rx="20" fill="#F4F4F5"/>
<rect width="599" height="100" transform="translate(273 134)" fill="#E4E4E7"/>
<rect x="305" y="168" width="232" height="32" rx="16" fill="#71717A"/>
<rect x="740" y="164" width="100" height="40" rx="10" fill="#09090B"/>
</svg>
