<svg width="16" height="16" viewBox="0 0 16 16" fill="none" xmlns="http://www.w3.org/2000/svg">
<path fill-rule="evenodd" clip-rule="evenodd" d="M3.42668 5.14795L7.5369 6.79002C7.83896 6.89664 8.00653 6.90996 8.30022 6.79002L12.4692 5.08931L11.7646 7.6697C11.6857 7.87591 11.6752 7.9913 11.7646 8.19751L12.704 10.6606L7.94792 12.8305L3.30924 10.7193L4.07257 8.25615C4.14454 7.99222 4.15726 7.84007 4.07257 7.55241L3.42668 5.14795ZM7.47818 7.49376L4.48359 6.32086L4.77718 7.43512C4.88509 7.80181 4.89748 8.00667 4.77718 8.37344L4.13128 10.3674L7.94792 12.0681L11.8233 10.3087L11.0599 8.25615C11.0003 8.01388 11.0037 7.87179 11.0599 7.61105L11.4122 6.32086L8.47638 7.49376C8.08193 7.63042 7.86324 7.63766 7.47818 7.49376Z" fill="#5456C0"/>
<path fill-rule="evenodd" clip-rule="evenodd" d="M7.94792 2.15705L11.8233 3.85776L7.94792 5.44118L4.07257 3.85776L7.94792 2.15705ZM7.94792 2.91943L5.83409 3.85776L7.94792 4.67879L10.003 3.85776L7.94792 2.91943Z" fill="#5456C0"/>
<path fill-rule="evenodd" clip-rule="evenodd" d="M8.53509 0.104461L14.1133 2.56756C14.6633 2.86279 14.8888 3.0819 14.8766 3.74047V4.32692C14.8766 4.67879 13.8784 7.84563 13.8784 7.84563L14.994 10.7779C15.0342 11.4818 14.8778 11.7823 14.3481 12.1854L8.53509 14.8831C8.09249 15.0425 7.83471 15.0354 7.36074 14.8831L1.72387 12.3027C1.01385 11.8711 0.891595 11.5318 1.07798 10.7779L1.95874 7.90428C1.95874 7.90428 1.01926 4.67879 1.01926 4.44421V3.74047C1.00951 3.18654 1.15517 2.96577 1.60643 2.68485L7.36074 0.104461C7.79323 -0.0320939 8.0493 -0.03752 8.53509 0.104461ZM8.53509 0.86685C8.07639 0.647359 7.81955 0.655531 7.36074 0.86685L2.07617 3.21266C1.8266 3.34888 1.7452 3.46264 1.72387 3.74047V4.32692C1.72387 4.62015 2.72207 7.90428 2.72207 7.90428L1.78259 10.8952C1.68416 11.2824 1.72387 11.5403 2.07617 11.7162L7.5369 14.1793C7.85204 14.3024 8.03107 14.319 8.35894 14.1793L13.9371 11.5989C14.2903 11.3899 14.3506 11.2109 14.2307 10.7779L13.1738 7.90428C13.1738 7.90428 14.172 4.5615 14.172 4.32692V3.74047C14.1495 3.45765 14.0601 3.35041 13.8197 3.21266L8.53509 0.86685Z" fill="#5456C0"/>
</svg>
